{"title":"Repeaters (2011) DVDRip x264-BBnRG 400MB","uid":6591009,"size":441964412,"categoryP":"video","categoryS":"movies_dvdr","magnet":"?xt=urn:btih:3d5e6ecb1c036963d889f1509453712ec8e6abaa&amp;dn=Repeaters+%282011%29+DVDRip+x264-BBnRG+400MB+&amp;tr=udp%3A%2F%2Ftracker.openbittorrent.com%3A80&amp;tr=udp%3A%2F%2Fopen.demonii.com%3A1337&amp;tr=udp%3A%2F%2Ftracker.coppersurfer.tk%3A6969&amp;tr=udp%3A%2F%2Fexodus.desync.com%3A6969","seeders":0,"leechers":1,"uploader":"ShihanMihiranga","files":2,"time":1312824951,"description":"Cover Page\n &lt;a href=&quot;\nhttp://freeimage.uphero.com/?v=rptsj.png&quot; rel=&quot;nofollow&quot; target=&quot;_NEW&quot;&gt;\nhttp://freeimage.uphero.com/?v=rptsj.png&lt;/a&gt;\n\n\nScreen Shorts \n &lt;a href=&quot;\nhttp://freeimage.uphero.com/?v=vlcsnap201.png&quot; rel=&quot;nofollow&quot; target=&quot;_NEW&quot;&gt;\nhttp://freeimage.uphero.com/?v=vlcsnap201.png&lt;/a&gt;\n &lt;a href=&quot;\nhttp://freeimage.uphero.com/?v=vlcsnaaya.png&quot; rel=&quot;nofollow&quot; target=&quot;_NEW&quot;&gt;\nhttp://freeimage.uphero.com/?v=vlcsnaaya.png&lt;/a&gt;\n &lt;a href=&quot;\nhttp://freeimage.uphero.com/?v=vlcsnapkp.png&quot; rel=&quot;nofollow&quot; target=&quot;_NEW&quot;&gt;\nhttp://freeimage.uphero.com/?v=vlcsnapkp.png&lt;/a&gt;\n\n\n\nComplete name                    : Repeaters (2011) DVDRip x264-BBnRG\nFormat                           : MPEG-4\nFormat profile                   : Base Media / Version 2\nCodec ID                         : mp42\nFile size                        : 421 MiB\nDuration                         : 1h 29mn\nOverall bit rate                 : 660 Kbps\n\nVideo\nID                               : 1\nFormat                           : AVC\nFormat/Info                      : Advanced Video Codec\nFormat profile                   : &lt;a class=&quot;__cf_email__&quot; href=&quot;/cdn-cgi/l/email-protection&quot; data-cfemail=&quot;410c20282f010d736f70&quot;&gt;[email&amp;#160;protected]&lt;/a&gt;&lt;script cf-hash='f9e31' type=&quot;text/javascript&quot;&gt;\n/* &lt;![CDATA[ */!function(){try{var t=&quot;currentScript&quot;in document?document.currentScript:function(){for(var t=document.getElementsByTagName(&quot;script&quot;),e=t.length;e--;)if(t[e].getAttribute(&quot;cf-hash&quot;))return t[e]}();if(t&amp;&amp;t.previousSibling){var e,r,n,i,c=t.previousSibling,a=c.getAttribute(&quot;data-cfemail&quot;);if(a){for(e=&quot;&quot;,r=parseInt(a.substr(0,2),16),n=2;a.length-n;n+=2)i=parseInt(a.substr(n,2),16)^r,e+=String.fromCharCode(i);e=document.createTextNode(e),c.parentNode.replaceChild(e,c)}}}catch(u){}}();/* ]]&gt; */&lt;/script&gt;\nFormat settings, CABAC           : Yes\nFormat settings, ReFrames        : 4 frames\nFormat settings, GOP             : M=3, N=21\nCodec ID                         : avc1\nCodec ID/Info                    : Advanced Video Coding\nDuration                         : 1h 29mn\nBit rate mode                    : Variable\nBit rate                         : 500 Kbps\nWidth                            : 640 pixels\nHeight                           : 272 pixels\nDisplay aspect ratio             : 2.35:1\nFrame rate mode                  : Variable\nFrame rate                       : 23.976 fps\nMinimum frame rate               : 11.989 fps\nMaximum frame rate               : 23.981 fps\nColor space                      : YUV\nChroma subsampling               : 4:2:0\nBit depth                        : 8 bits\nScan type                        : Progressive\nBits/(Pixel*Frame)               : 0.120\nStream size                      : 316 MiB (75%)\nWriting library                  : x264 core 112\n\nAudio\nID                               : 2\nFormat                           : AAC\nFormat/Info                      : Advanced Audio Codec\nFormat profile                   : LC\nCodec ID                         : 40\nDuration                         : 1h 29mn\nBit rate mode                    : Variable\nBit rate                         : 160 Kbps\nMaximum bit rate                 : 280 Kbps\nChannel(s)                       : 2 channels\nChannel positions                : Front: L R\nSampling rate                    : 48.0 KHz\nCompression mode                 : Lossy\nStream size                      : 102 MiB (24%)\n","torrent":{"xt":"urn:btih:3d5e6ecb1c036963d889f1509453712ec8e6abaa","amp;dn":"Repeaters+%282011%29+DVDRip+x264-BBnRG+400MB+","amp;tr":["udp%3A%2F%2Ftracker.openbittorrent.com%3A80","udp%3A%2F%2Fopen.demonii.com%3A1337","udp%3A%2F%2Ftracker.coppersurfer.tk%3A6969","udp%3A%2F%2Fexodus.desync.com%3A6969"],"infoHash":"3d5e6ecb1c036963d889f1509453712ec8e6abaa","infoHashBuffer":{"type":"Buffer","data":[61,94,110,203,28,3,105,99,216,137,241,80,148,83,113,46,200,230,171,170]},"announce":[],"urlList":[]}}